<svg preserveAspectRatio="none" width="100%" height="100%" overflow="visible" style="display: block;" viewBox="0 0 40 40" fill="none" xmlns="http://www.w3.org/2000/svg">
<g id="material-symbols:info">
<path id="Vector" d="M18.333 28.334H21.6663V18.334H18.333V28.334ZM19.9997 15.0007C20.4719 15.0007 20.868 14.8407 21.188 14.5207C21.508 14.2007 21.6675 13.8051 21.6663 13.334C21.6652 12.8629 21.5052 12.4673 21.1863 12.1473C20.8675 11.8273 20.4719 11.6673 19.9997 11.6673C19.5275 11.6673 19.1319 11.8273 18.813 12.1473C18.4941 12.4673 18.3341 12.8629 18.333 13.334C18.3319 13.8051 18.4919 14.2012 18.813 14.5223C19.1341 14.8434 19.5297 15.0029 19.9997 15.0007ZM19.9997 36.6673C17.6941 36.6673 15.5275 36.2295 13.4997 35.354C11.4719 34.4784 9.70801 33.2912 8.20801 31.7923C6.70801 30.2934 5.52079 28.5295 4.64634 26.5007C3.7719 24.4718 3.33412 22.3051 3.33301 20.0007C3.3319 17.6962 3.76968 15.5295 4.64634 13.5007C5.52301 11.4718 6.71023 9.70787 8.20801 8.20899C9.70579 6.7101 11.4697 5.52287 13.4997 4.64732C15.5297 3.77176 17.6963 3.33398 19.9997 3.33398C22.303 3.33398 24.4697 3.77176 26.4997 4.64732C28.5297 5.52287 30.2936 6.7101 31.7913 8.20899C33.2891 9.70787 34.4769 11.4718 35.3547 13.5007C36.2325 15.5295 36.6697 17.6962 36.6663 20.0007C36.663 22.3051 36.2252 24.4718 35.353 26.5007C34.4808 28.5295 33.2936 30.2934 31.7913 31.7923C30.2891 33.2912 28.5252 34.479 26.4997 35.3557C24.4741 36.2323 22.3075 36.6695 19.9997 36.6673Z" fill="var(--fill-0, #8A3FFC)"/>
</g>
</svg>
