<svg preserveAspectRatio="none" width="100%" height="100%" overflow="visible" style="display: block;" viewBox="0 0 14 14" fill="none" xmlns="http://www.w3.org/2000/svg">
<g id="Group">
<path id="Vector" d="M8.07692 9.9363C8.07692 10.1684 7.98474 10.3909 7.82064 10.555C7.65655 10.7191 7.43399 10.8113 7.20192 10.8113C6.96986 10.8113 6.7473 10.7191 6.5832 10.555C6.41911 10.3909 6.32692 10.1684 6.32692 9.9363C6.32692 9.70423 6.41911 9.48167 6.5832 9.31758C6.7473 9.15349 6.96986 9.0613 7.20192 9.0613C7.43399 9.0613 7.65655 9.15349 7.82064 9.31758C7.98474 9.48167 8.07692 9.70423 8.07692 9.9363ZM6.76442 3.8113C6.18426 3.8113 5.62786 4.04177 5.21763 4.452C4.80739 4.86224 4.57692 5.41864 4.57692 5.9988H6.32692C6.32692 5.88277 6.37302 5.77149 6.45506 5.68944C6.53711 5.60739 6.64839 5.5613 6.76442 5.5613H7.32967C7.40501 5.56133 7.47813 5.58682 7.53717 5.63362C7.5962 5.68042 7.6377 5.7458 7.65492 5.81914C7.67214 5.89249 7.66408 5.9695 7.63204 6.03768C7.60001 6.10587 7.54587 6.16124 7.47842 6.1948L6.32692 6.77055V8.1863H8.07692V7.85205L8.26155 7.7593C8.68123 7.5492 9.01771 7.2036 9.21653 6.77846C9.41534 6.35332 9.46485 5.87352 9.35703 5.41674C9.24922 4.95996 8.99039 4.55294 8.62245 4.26158C8.25451 3.97021 7.799 3.81156 7.32967 3.8113H6.76442Z" fill="var(--fill-0, #B65FC8)"/>
<path id="Vector_2" d="M0 7C0 5.14348 0.737498 3.36301 2.05025 2.05025C3.36301 0.737498 5.14348 0 7 0C8.85652 0 10.637 0.737498 11.9497 2.05025C13.2625 3.36301 14 5.14348 14 7C14 8.85652 13.2625 10.637 11.9497 11.9497C10.637 13.2625 8.85652 14 7 14C5.14348 14 3.36301 13.2625 2.05025 11.9497C0.737498 10.637 0 8.85652 0 7ZM7 1.75C6.31056 1.75 5.62787 1.8858 4.99091 2.14963C4.35395 2.41347 3.7752 2.80018 3.28769 3.28769C2.80018 3.7752 2.41347 4.35395 2.14963 4.99091C1.8858 5.62787 1.75 6.31056 1.75 7C1.75 7.68944 1.8858 8.37213 2.14963 9.00909C2.41347 9.64605 2.80018 10.2248 3.28769 10.7123C3.7752 11.1998 4.35395 11.5865 4.99091 11.8504C5.62787 12.1142 6.31056 12.25 7 12.25C8.39239 12.25 9.72774 11.6969 10.7123 10.7123C11.6969 9.72774 12.25 8.39239 12.25 7C12.25 5.60761 11.6969 4.27226 10.7123 3.28769C9.72774 2.30312 8.39239 1.75 7 1.75Z" fill="var(--fill-0, #B65FC8)"/>
</g>
</svg>
